PathFileType	4	(X/Y/Z)	s10c0302.trc
DataRate	CameraRate	NumFrames	NumMarkers	Units	OrigDataRate	OrigDataStartFrame	OrigNumFrames
200	200	7	50	mm	200	500	2000
Frame#	Time	racr			lacr			c7			jug			rlel			rdr			llel			ldr			s2			lic			ric			lasi			rasi			rpsi			lpsi			rgt			lgt			rth1			rth2			rth3			rth4			rlfc			rmfc			rsh1			rsh2			rsh3			rsh4			rlmal			rmmal			rcal			rtoe			rmt5			lth1			lth2			lth4			lth3			llfc			lmfc			llmal			lmmal			lcal			lmt5			lsh1			lsh2			lsh3			lsh4			ltoe			SBIKE			LBIKE			RBIKE			
		X1	Y1	Z1	X2	Y2	Z2	X3	Y3	Z3	X4	Y4	Z4	X5	Y5	Z5	X6	Y6	Z6	X7	Y7	Z7	X8	Y8	Z8	X9	Y9	Z9	X10	Y10	Z10	X11	Y11	Z11	X12	Y12	Z12	X13	Y13	Z13	X14	Y14	Z14	X15	Y15	Z15	X16	Y16	Z16	X17	Y17	Z17	X18	Y18	Z18	X19	Y19	Z19	X20	Y20	Z20	X21	Y21	Z21	X22	Y22	Z22	X23	Y23	Z23	X24	Y24	Z24	X25	Y25	Z25	X26	Y26	Z26	X27	Y27	Z27	X28	Y28	Z28	X29	Y29	Z29	X30	Y30	Z30	X31	Y31	Z31	X32	Y32	Z32	X33	Y33	Z33	X34	Y34	Z34	X35	Y35	Z35	X36	Y36	Z36	X37	Y37	Z37	X38	Y38	Z38	X39	Y39	Z39	X40	Y40	Z40	X41	Y41	Z41	X42	Y42	Z42	X43	Y43	Z43	X44	Y44	Z44	X45	Y45	Z45	X46	Y46	Z46	X47	Y47	Z47	X48	Y48	Z48	X49	Y49	Z49	X50	Y50	Z50	
500	2.5000	612.960019	1302.821652	-82.781776	535.504374	1306.446536	-415.374029	560.216535	1364.324864	-243.315940	546.206944	1218.323967	-239.520059	543.357369	1056.362571	22.634808	644.684029	875.828020	-53.038665	456.133578	1028.652118	-463.567064	637.783386	899.651450	-413.407074	47.740384	1166.459502	-139.341948	174.885928	1206.442705	-309.979673	260.572051	1148.862619	-40.557963	207.421969	1115.580301	-315.516634	254.110504	1066.374544	-62.745171	111.376389	1207.861316	-82.897858	89.050777	1241.215255	-187.006609	140.891843	1035.299355	1.746780	77.858220	1086.335543	-364.357594	156.530684	899.630247	13.349980	187.871221	819.549639	-10.705148	173.874907	736.740242	-25.058026	223.546466	826.770196	-18.934094	195.526244	634.931514	-51.442474	172.565485	631.039445	-164.934454	136.071497	536.552635	-18.887295	135.486860	448.849873	-32.776371	92.900969	373.514374	-35.120463	163.463596	444.540399	-59.070397	63.500200	282.419938	-51.426740	82.003175	287.529819	-131.345087	13.625031	298.895840	-99.724750	186.275324	127.561153	-102.421419	107.393814	159.513559	-38.516667	172.808506	993.699424	-402.394753	256.692470	971.188282	-407.590857	275.340765	1001.879793	-400.430473	318.158803	907.770580	-417.672087	411.458982	845.180893	-422.828031	435.605151	833.100663	-301.456839	143.949813	583.115675	-383.522030	161.920033	587.331160	-302.673844	79.291148	564.345394	-335.235324	231.539396	476.554942	-405.858619	315.378586	772.367500	-436.039778	280.239771	693.355353	-418.145117	206.335636	644.711010	-405.867564	305.320415	678.111469	-393.099347	319.364502	487.591042	-350.449076	-217.926950	832.088155	-214.186689	-103.965259	80.493871	-418.293923	-103.989091	80.467087	-18.361726	
501	2.5050	615.034107	1303.609433	-86.194927	537.014441	1306.911332	-418.104204	562.536642	1365.042416	-246.627654	547.762890	1219.421954	-242.547845	545.398694	1057.830988	20.420034	644.900997	875.721353	-53.258022	456.410300	1029.316543	-464.096072	637.786484	899.947207	-413.526301	49.403309	1172.853144	-140.220102	175.963498	1210.157865	-310.711774	262.370360	1152.679962	-42.267268	207.377144	1118.809179	-316.158801	254.746111	1070.571950	-63.795320	114.546403	1214.191910	-84.812631	90.788454	1246.363650	-188.151322	141.073866	1040.766083	1.084385	78.127482	1091.457636	-364.614669	154.939073	904.587282	13.275550	185.014904	823.952844	-10.590016	169.748665	741.273424	-24.480049	220.776605	830.528788	-19.013915	189.827236	639.401831	-50.524696	166.561932	635.208537	-164.964336	130.960677	540.909228	-18.295043	131.491242	453.118258	-31.820056	89.794734	377.364182	-34.069193	159.493771	449.113509	-58.083783	60.149575	284.964000	-50.664545	81.081372	291.139323	-130.928200	10.820287	301.813740	-99.331174	182.226269	129.062381	-102.131692	103.440482	161.633697	-38.397064	171.762666	997.603331	-402.534219	255.290588	973.711379	-407.167941	274.375728	1004.165436	-400.053818	315.786662	909.260764	-416.744721	408.793890	845.085340	-421.348604	432.049802	833.761413	-299.764782	145.067604	578.796651	-383.670670	162.707147	583.320072	-302.573082	80.507448	558.465224	-335.493877	234.957492	474.401407	-406.122903	313.565260	771.084547	-434.887462	279.574931	691.488020	-417.756233	206.389605	641.719881	-405.729376	304.855206	676.460920	-392.808959	322.480849	487.726439	-350.687692	-217.769475	832.309675	-214.368290	-103.949850	80.466820	-418.283465	-103.991942	80.489735	-18.353297	
502	2.5100	616.512115	1303.617634	-91.354633	538.256736	1307.603270	-420.957083	564.898804	1365.586181	-249.851092	549.383421	1220.392889	-245.380144	547.308006	1059.103687	18.343950	645.087072	875.572838	-53.470444	456.811954	1030.038910	-464.713628	637.790415	900.204280	-413.603811	51.053818	1178.865365	-141.120920	177.052415	1213.687250	-311.401225	264.155088	1156.419531	-44.207806	207.480970	1122.213999	-317.053181	255.105792	1074.495834	-65.060319	116.893863	1219.626863	-85.863367	92.604675	1251.432713	-189.404629	141.288288	1046.202943	0.471898	78.417072	1096.457619	-364.959363	153.343185	909.343516	13.165084	182.218940	828.423324	-10.413653	165.934243	745.766191	-24.037253	218.085550	834.473239	-19.016128	184.360385	643.756261	-49.638706	160.873406	639.529144	-164.929948	125.942935	545.590187	-17.770024	127.252405	457.713078	-30.923763	86.260588	381.451715	-33.236683	155.501738	453.708408	-57.049945	55.706187	287.377686	-50.007806	78.192751	294.517480	-129.962237	6.619319	303.477648	-99.199579	178.805748	131.524791	-101.978260	99.723618	163.727182	-38.356256	170.606649	1001.414533	-402.576969	253.830546	976.432442	-407.433925	273.446298	1006.820231	-400.126317	313.395455	910.868290	-415.807548	405.861973	844.820195	-418.786710	428.604301	834.148493	-298.106934	146.445949	574.675794	-383.918171	163.664304	579.532226	-302.386036	81.800978	553.404734	-335.834440	237.913283	472.373875	-406.567555	311.927712	769.739090	-433.849806	279.143876	689.415527	-417.430460	206.722618	638.511857	-405.639846	304.683099	674.695026	-392.514941	325.201847	487.364255	-350.886048	-217.763460	832.131328	-214.312129	-103.935485	80.461086	-418.251916	-103.958606	80.504677	-18.335831	
503	2.5150	618.508158	1304.311465	-94.489943	539.444354	1308.274249	-423.723079	567.143309	1365.939334	-252.867121	551.027129	1221.457682	-248.367635	549.215542	1060.359394	16.335834	645.237964	875.376346	-53.665101	457.306972	1030.711731	-465.364193	637.752121	900.377221	-413.651589	52.793517	1185.026000	-142.217377	178.263188	1217.052150	-312.183086	265.824946	1160.340629	-45.352874	207.670176	1125.325556	-318.114036	254.759624	1078.358150	-66.904913	119.079675	1225.098142	-86.967818	94.478891	1256.354541	-190.776719	141.480164	1051.708702	-0.125010	78.713517	1101.234540	-365.316108	151.959058	913.977077	12.943870	179.678731	832.766190	-10.460511	162.453381	750.340167	-23.621842	215.669086	838.378574	-19.242315	179.330525	648.065674	-48.819940	155.684314	643.782098	-164.979052	121.101308	549.951581	-17.259494	123.010593	462.103803	-30.128898	82.236354	385.726502	-32.631423	151.414366	458.251187	-55.967588	50.272976	289.136636	-49.637560	74.456118	297.298019	-129.182698	1.315908	304.714770	-98.888374	175.419801	134.534836	-101.788212	96.218467	165.739443	-38.363290	169.393998	1005.052968	-402.499144	252.288624	978.938396	-406.933134	272.307466	1008.902829	-399.630717	310.953935	912.534077	-415.010760	403.311594	844.938429	-417.200062	425.083826	834.686378	-296.321220	147.299725	570.989544	-384.116638	164.125283	575.898511	-302.155525	82.978973	548.826769	-336.369609	240.336650	470.365862	-406.789887	310.489383	768.146321	-432.924343	278.907625	687.229504	-417.068601	207.201894	635.295036	-405.515391	304.596114	672.773813	-392.121949	327.432203	487.443216	-351.315944	-217.619420	832.339928	-214.430922	-103.910068	80.437004	-418.234315	-103.922992	80.486061	-18.319364	
504	2.5200	620.458814	1304.883281	-97.646067	540.617003	1308.946503	-426.358955	569.251274	1366.352007	-255.974220	552.611786	1222.256651	-251.115089	551.091471	1061.414517	14.471415	645.352515	875.288638	-53.778444	457.869676	1031.399607	-466.115349	637.660856	900.506984	-413.726470	54.498953	1190.920991	-143.282045	179.531758	1220.373886	-312.988094	267.421855	1163.929731	-46.864135	208.018691	1128.341631	-319.294978	254.983069	1082.193693	-68.309006	121.402190	1230.214412	-88.194101	96.495738	1261.311665	-192.181391	141.779679	1056.827212	-0.772376	78.941651	1105.861908	-365.640396	150.786532	918.733449	12.687183	177.547822	837.028815	-10.538876	159.425212	754.732261	-23.488557	213.567773	842.217592	-19.534930	174.935037	652.337359	-48.154523	151.277622	647.833591	-164.645965	116.473661	554.376419	-16.834311	118.461543	466.420179	-29.487886	77.671179	390.146646	-32.308027	147.023407	462.614708	-55.148740	44.530686	291.494454	-49.270037	69.756935	300.312743	-128.414369	-4.119812	306.706494	-98.616720	171.488879	138.003346	-101.556177	92.163956	168.629976	-38.264418	168.147986	1008.564610	-402.353009	250.715000	981.407963	-406.511126	271.053316	1011.039812	-398.983222	308.538770	914.237453	-414.292082	400.813293	845.099479	-415.754815	421.545036	835.072462	-294.575017	147.464466	566.979941	-384.217021	164.330731	572.088601	-302.109656	83.851250	543.156167	-336.824965	243.262704	468.153654	-406.984374	309.210526	766.473077	-432.084171	278.627760	684.930467	-416.454249	207.622777	632.143669	-405.458816	304.417704	670.933127	-391.476947	329.834983	487.750118	-351.339046	-217.781301	832.089723	-214.381224	-103.919711	80.418056	-418.228466	-103.923186	80.481361	-18.310015	
505	2.5250	622.274473	1305.229502	-100.880117	541.539656	1309.605641	-428.974112	571.307652	1366.562796	-258.848412	554.068101	1223.184913	-254.006730	552.746773	1062.388418	12.744162	645.494327	875.217746	-53.863055	458.493689	1032.099597	-466.932882	637.585214	900.697689	-413.830052	56.311415	1196.753414	-144.518744	180.779600	1223.433287	-313.832231	268.893972	1167.356437	-48.916881	208.392251	1131.166682	-320.470751	255.102269	1085.809427	-69.738616	123.722121	1235.467555	-89.523653	98.505058	1266.024769	-193.699314	141.973392	1062.084819	-1.363721	79.036641	1110.334410	-365.876573	149.625441	923.221980	12.255209	175.735021	841.210269	-10.822910	156.813372	759.025782	-23.544187	211.751454	846.130065	-19.875120	171.288447	656.414620	-47.742721	147.591996	651.333127	-164.770643	112.157760	558.806835	-16.571550	113.716637	470.876462	-29.040159	72.549216	394.781725	-32.126454	142.524496	466.639903	-54.436118	38.770704	294.373222	-49.161875	64.565036	303.934483	-128.176844	-10.416125	308.185515	-98.884799	167.590812	142.031786	-101.075799	87.678479	171.799060	-37.967000	166.895884	1011.994473	-402.223450	249.191938	984.011709	-406.364547	269.780048	1012.788840	-397.511054	306.115502	915.833602	-413.532079	398.461516	845.249831	-414.239402	418.052556	835.063445	-292.854186	148.324422	562.607801	-384.276274	164.835704	568.780557	-301.449463	84.790682	537.000032	-337.128852	246.254578	465.966626	-407.121576	307.951983	764.736136	-431.255065	278.343384	682.775076	-415.792664	208.015478	629.086453	-405.372661	304.135367	669.100067	-390.701110	332.376875	487.334865	-351.452281	-217.733199	832.146469	-214.461721	-103.942574	80.452915	-418.233081	-103.942250	80.501441	-18.305472	
506	2.5300	624.197726	1305.889205	-102.868283	542.482210	1310.256311	-431.489837	573.253603	1366.680189	-261.802119	555.421587	1223.817856	-256.644156	554.299885	1063.212678	11.135155	645.747650	875.218248	-53.953275	459.139592	1032.769354	-467.738357	637.510773	900.968480	-414.063176	58.096543	1202.391919	-145.814966	182.146104	1226.382397	-314.959544	270.226120	1170.745020	-50.792088	208.855597	1133.760977	-321.622468	255.052881	1089.304671	-71.170352	126.138630	1240.354888	-92.614972	100.636199	1270.758871	-195.254570	142.233548	1067.049735	-1.945026	79.260867	1114.609410	-366.336671	148.660612	927.541935	11.635715	174.184851	845.382201	-11.257659	154.732963	763.313033	-23.764428	210.298296	850.014247	-20.338436	168.554259	660.322935	-47.594768	143.502680	656.807858	-167.071338	108.197927	563.063238	-16.441307	108.952830	475.104889	-28.709343	66.963516	399.352832	-32.060193	137.892622	470.591858	-53.807372	32.879283	297.049588	-49.207541	59.247913	307.600841	-127.693960	-16.859625	309.748428	-98.710227	163.874940	145.893340	-101.048598	83.435820	174.167574	-38.080584	165.667258	1015.210063	-402.030550	247.633371	986.296345	-405.808760	268.439497	1014.646227	-396.616744	303.714536	917.420626	-412.819305	396.175791	845.274348	-412.623453	414.738394	834.867242	-290.753311	149.631060	558.367409	-384.325155	170.049810	567.269116	-295.820084	86.151504	531.506313	-337.149475	248.944857	463.667646	-407.479455	306.874819	762.750398	-430.318537	278.105883	680.494746	-415.018154	208.353352	625.873634	-405.256140	303.923836	667.031621	-389.973575	334.760681	486.741475	-351.982000	-217.772708	832.144681	-214.410852	-103.943637	80.447072	-418.239693	-103.970828	80.522789	-18.319271	
